# Blender v3.2.0 OBJ File: 'tank1.blend'
# www.blender.org
o Plane.002
v -0.635218 1.190155 -0.005063
v -0.635218 1.190155 0.664293
v 0.782127 1.190155 -0.005063
v 0.781414 1.190155 0.688697
v 1.966245 1.016443 1.272133
v 1.954893 1.032412 -0.005063
v 2.364223 0.796002 1.272133
v 2.352872 0.811971 -0.005063
v -1.209096 0.274014 1.272133
v 2.499861 0.288878 1.272133
v 2.488509 0.304848 -0.005063
v 2.323993 0.012451 1.272133
v 2.312642 0.028421 -0.005063
v -2.270274 0.012451 1.272133
v -2.281626 0.028421 -0.005063
v -2.590548 0.167066 1.272133
v -2.601900 0.183036 -0.005063
v 2.183837 0.631880 1.272133
v -0.195583 0.200348 1.272133
v 0.015508 0.028421 -0.005063
v 0.026860 0.012451 1.272133
v -1.370821 0.012451 1.272133
v -1.382173 0.028421 -0.005063
v -1.253755 0.663474 1.272133
v -2.302998 0.415241 1.272133
v -2.406286 0.562390 1.272133
v -2.533644 0.418735 1.272133
v -2.548748 0.418721 -0.005063
v -2.421003 0.562253 -0.005063
v -0.635218 1.190155 -0.674418
v 0.781414 1.190155 -0.698823
v 1.966245 1.016443 -1.282259
v 2.364223 0.796002 -1.282259
v -1.209096 0.274014 -1.282259
v 2.499861 0.288878 -1.282259
v 2.323993 0.012451 -1.282259
v -2.270274 0.012451 -1.282259
v -2.590548 0.167066 -1.282259
v 2.183837 0.631880 -1.282259
v -0.195583 0.200348 -1.282259
v 0.026860 0.012451 -1.282259
v -1.370821 0.012451 -1.282259
v -1.253755 0.663474 -1.282259
v -2.302998 0.415241 -1.282259
v -2.406286 0.562390 -1.282259
v -2.533644 0.418735 -1.282259
vt 0.524290 0.237141
vt 0.615881 0.237141
vt 0.619220 0.430427
vt 0.524290 0.430524
vt 0.918698 0.039346
vt 0.884732 0.182918
vt 0.898564 0.025213
vt 0.918220 0.007786
vt 0.699054 0.593887
vt 0.524290 0.592172
vt 0.699054 0.650473
vt 0.524290 0.648759
vt 0.866598 0.677980
vt 0.836434 0.623523
vt 0.938023 0.189029
vt 0.454192 0.825237
vt 0.451680 1.000000
vt 0.379849 1.000000
vt 0.382362 0.825237
vt 0.349527 1.000000
vt 0.352039 0.825237
vt 0.174763 0.168216
vt 0.000000 0.170002
vt 0.000000 0.047684
vt 0.174763 0.045898
vt 0.000000 0.001786
vt 0.174763 0.000000
vt 0.973814 0.043824
vt 0.952657 0.000000
vt 0.512595 0.825237
vt 0.513830 1.000000
vt 0.479638 1.000000
vt 0.480583 0.825237
vt 0.948103 0.327712
vt 0.889055 0.653297
vt 0.973814 0.672475
vt 0.935989 0.696540
vt 0.174763 0.670680
vt 0.000000 0.672465
vt 0.000000 0.360075
vt 0.174763 0.358289
vt 0.973814 0.358150
vt 0.973814 0.166900
vt 0.699054 0.002007
vt 0.699054 0.158210
vt 0.454192 1.000000
vt 0.455128 0.825237
vt 0.524290 0.000000
vt 0.429361 0.430427
vt 0.432700 0.237141
vt 0.781319 0.657193
vt 0.780841 0.688753
vt 0.761184 0.671326
vt 0.747352 0.513621
vt 0.349527 0.593887
vt 0.349527 0.650473
vt 0.729218 0.018560
vt 0.800643 0.507510
vt 0.699054 0.073017
vt 0.379849 0.650473
vt 0.451680 0.650473
vt 0.349527 0.650473
vt 0.349527 0.047684
vt 0.349527 0.170002
vt 0.349527 0.001786
vt 0.836434 0.652715
vt 0.815277 0.696540
vt 0.479638 0.650473
vt 0.513830 0.650473
vt 0.751675 0.043243
vt 0.810723 0.368828
vt 0.798609 0.000000
vt 0.836434 0.024065
vt 0.349527 0.360075
vt 0.349527 0.672465
vt 0.836434 0.338390
vt 0.836434 0.529640
vt 0.349527 0.158210
vt 0.349527 0.002007
vt 0.454192 0.650473
vn 0.0000 1.0000 0.0000
vn 0.0000 0.0000 1.0000
vn 0.1374 0.9905 0.0073
vn 0.4845 0.8748 0.0066
vn 0.9660 0.2584 -0.0054
vn 0.8436 -0.5367 -0.0142
vn 0.0000 -0.9999 -0.0125
vn -0.4347 -0.9005 -0.0074
vn -0.9754 0.2203 0.0115
vn -0.0676 0.8341 0.5475
vn -0.7476 0.6641 0.0087
vn -0.3325 0.9431 0.0024
vn 0.0000 0.0000 -1.0000
vn 0.1374 0.9905 -0.0073
vn 0.4845 0.8748 -0.0066
vn 0.9660 0.2584 0.0054
vn 0.8436 -0.5367 0.0142
vn 0.0000 -0.9999 0.0125
vn -0.4347 -0.9005 0.0074
vn -0.9754 0.2203 -0.0115
vn -0.0676 0.8341 -0.5475
vn -0.7476 0.6641 -0.0087
vn -0.3325 0.9431 -0.0024
s off
f 1/1/1 2/2/1 4/3/1 3/4/1
f 25/5/2 24/6/2 26/7/2 27/8/2
f 4/3/3 5/9/3 6/10/3 3/4/3
f 6/10/4 5/9/4 7/11/4 8/12/4
f 7/13/2 5/14/2 24/6/2 25/5/2 9/15/2
f 8/16/5 7/17/5 10/18/5 11/19/5
f 11/19/6 10/18/6 12/20/6 13/21/6
f 23/22/7 22/23/7 14/24/7 15/25/7
f 15/25/8 14/24/8 16/26/8 17/27/8
f 14/28/2 25/5/2 27/8/2 16/29/2
f 17/30/9 16/31/9 27/32/9 28/33/9
f 7/13/2 9/15/2 19/34/2 18/35/2
f 7/13/2 18/35/2 12/36/2 10/37/2
f 13/38/7 12/39/7 21/40/7 20/41/7
f 20/41/7 21/40/7 22/23/7 23/22/7
f 19/34/2 21/42/2 12/36/2 18/35/2
f 9/15/2 22/43/2 21/42/2 19/34/2
f 25/5/2 14/28/2 22/43/2 9/15/2
f 4/3/10 2/2/10 26/44/10 24/45/10 5/9/10
f 26/46/11 29/47/11 28/33/11 27/32/11
f 29/48/12 26/44/12 2/2/12 1/1/12
f 1/1/1 3/4/1 31/49/1 30/50/1
f 44/51/13 46/52/13 45/53/13 43/54/13
f 31/49/14 3/4/14 6/10/14 32/55/14
f 6/10/15 8/12/15 33/56/15 32/55/15
f 33/57/13 34/58/13 44/51/13 43/54/13 32/59/13
f 8/16/16 11/19/16 35/60/16 33/61/16
f 11/19/17 13/21/17 36/62/17 35/60/17
f 23/22/18 15/25/18 37/63/18 42/64/18
f 15/25/19 17/27/19 38/65/19 37/63/19
f 37/66/13 38/67/13 46/52/13 44/51/13
f 17/30/20 28/33/20 46/68/20 38/69/20
f 33/57/13 39/70/13 40/71/13 34/58/13
f 33/57/13 35/72/13 36/73/13 39/70/13
f 13/38/18 20/41/18 41/74/18 36/75/18
f 20/41/18 23/22/18 42/64/18 41/74/18
f 40/71/13 39/70/13 36/73/13 41/76/13
f 34/58/13 40/71/13 41/76/13 42/77/13
f 44/51/13 34/58/13 42/77/13 37/66/13
f 31/49/21 32/55/21 43/78/21 45/79/21 30/50/21
f 45/80/22 46/68/22 28/33/22 29/47/22
f 29/48/23 1/1/23 30/50/23 45/79/23
